<?xml version="1.0" encoding="UTF-8" standalone="no"?><!DOCTYPE svg PUBLIC "-//W3C//DTD SVG 1.1//EN" "http://www.w3.org/Graphics/SVG/1.1/DTD/svg11.dtd"><!-- Generated by graphviz version 2.40.1 (20161225.0304)
 --><!-- Title: G Pages: 1 --><svg xmlns="http://www.w3.org/2000/svg" xmlns:xlink="http://www.w3.org/1999/xlink" width="234pt" height="176pt" viewBox="0.00 0.00 234.00 176.00">
<g id="graph0" class="graph" transform="scale(1 1) rotate(0) translate(4 172)">
<title>G</title>
<polygon fill="#ffffff" stroke="transparent" points="-4,4 -4,-172 230,-172 230,4 -4,4"/>
<!-- 0 -->
<g id="node1" class="node">
<title>0</title>
<ellipse fill="#00ff00" stroke="#00ff00" cx="199.424" cy="-46.5914" rx="27" ry="18"/>
<text text-anchor="middle" x="199.424" y="-42.3914" font-family="Times,serif" font-size="14.00" fill="#000000">0</text>
</g>
<!-- 1 -->
<g id="node2" class="node">
<title>1</title>
<ellipse fill="none" stroke="#000000" cx="130.4957" cy="-17.9761" rx="27" ry="18"/>
<text text-anchor="middle" x="130.4957" y="-13.7761" font-family="Times,serif" font-size="14.00" fill="#000000">1</text>
</g>
<!-- 0&#45;&#45;1 -->
<g id="edge1" class="edge">
<title>0--1</title>
<path fill="none" stroke="#000000" d="M176.4719,-37.0629C169.1093,-34.0064 160.9548,-30.6211 153.5826,-27.5605"/>
</g>
<!-- 3 -->
<g id="node3" class="node">
<title>3</title>
<ellipse fill="none" stroke="#000000" cx="198.7681" cy="-101.6327" rx="27" ry="18"/>
<text text-anchor="middle" x="198.7681" y="-97.4327" font-family="Times,serif" font-size="14.00" fill="#000000">3</text>
</g>
<!-- 0&#45;&#45;3 -->
<g id="edge2" class="edge">
<title>0--3</title>
<path fill="none" stroke="#000000" d="M199.2092,-64.614C199.1375,-70.6337 199.0575,-77.3443 198.9856,-83.3812"/>
</g>
<!-- 2 -->
<g id="node4" class="node">
<title>2</title>
<ellipse fill="none" stroke="#000000" cx="131.9103" cy="-103.7234" rx="27" ry="18"/>
<text text-anchor="middle" x="131.9103" y="-99.5234" font-family="Times,serif" font-size="14.00" fill="#000000">2</text>
</g>
<!-- 1&#45;&#45;2 -->
<g id="edge3" class="edge">
<title>1--2</title>
<path fill="none" stroke="#000000" d="M130.7957,-36.1609C131.0358,-50.7125 131.3708,-71.0201 131.6108,-85.5648"/>
</g>
<!-- 4 -->
<g id="node5" class="node">
<title>4</title>
<ellipse fill="none" stroke="#000000" cx="62.0372" cy="-53.5388" rx="27" ry="18"/>
<text text-anchor="middle" x="62.0372" y="-49.3388" font-family="Times,serif" font-size="14.00" fill="#000000">4</text>
</g>
<!-- 1&#45;&#45;4 -->
<g id="edge4" class="edge">
<title>1--4</title>
<path fill="none" stroke="#000000" d="M108.835,-29.2283C100.8439,-33.3796 91.7914,-38.0821 83.792,-42.2377"/>
</g>
<!-- 2&#45;&#45;3 -->
<g id="edge5" class="edge">
<title>2--3</title>
<path fill="none" stroke="#000000" d="M159.104,-102.873C163.153,-102.7464 167.3286,-102.6158 171.3816,-102.4891"/>
</g>
<!-- 2&#45;&#45;4 -->
<g id="edge6" class="edge">
<title>2--4</title>
<path fill="none" stroke="#000000" d="M113.1856,-90.2748C103.1604,-83.0745 90.8467,-74.2305 80.8136,-67.0245"/>
</g>
<!-- 6 -->
<g id="node6" class="node">
<title>6</title>
<ellipse fill="#ff0000" stroke="#ff0000" cx="89.1067" cy="-149.937" rx="27" ry="18"/>
<text text-anchor="middle" x="89.1067" y="-145.737" font-family="Times,serif" font-size="14.00" fill="#000000">6</text>
</g>
<!-- 2&#45;&#45;6 -->
<g id="edge7" class="edge">
<title>2--6</title>
<path fill="none" stroke="#000000" d="M117.6573,-119.1119C113.0853,-124.0482 108.0214,-129.5154 103.4434,-134.4582"/>
</g>
<!-- 5 -->
<g id="node7" class="node">
<title>5</title>
<ellipse fill="none" stroke="#000000" cx="27.2872" cy="-100.7403" rx="27" ry="18"/>
<text text-anchor="middle" x="27.2872" y="-96.5403" font-family="Times,serif" font-size="14.00" fill="#000000">5</text>
</g>
<!-- 4&#45;&#45;5 -->
<g id="edge8" class="edge">
<title>4--5</title>
<path fill="none" stroke="#000000" d="M50.0782,-69.7829C46.6229,-74.4763 42.85,-79.6011 39.3862,-84.3061"/>
</g>
<!-- 5&#45;&#45;6 -->
<g id="edge9" class="edge">
<title>5--6</title>
<path fill="none" stroke="#000000" d="M44.8368,-114.7065C53.2611,-121.4107 63.325,-129.4197 71.7271,-136.1062"/>
</g>
</g>
</svg>